HIERARCHY
ROOT Hips
{
    OFFSET 0.000000 0.000000 0.000000
    CHANNELS 6 Xposition Yposition Zposition Zrotation Xrotation Yrotation
    JOINT Spine
    {
        OFFSET -0.000000 8.603107 0.000000
        CHANNELS 3 Zrotation Xrotation Yrotation
        JOINT Spine1
        {
            OFFSET -0.000000 23.906662 0.000000
            CHANNELS 3 Zrotation Xrotation Yrotation
            JOINT Neck
            {
                OFFSET -0.000000 23.808481 2.164407
                CHANNELS 3 Zrotation Xrotation Yrotation
                JOINT Head
                {
                    OFFSET -0.000000 14.688231 -2.098319
                    CHANNELS 3 Zrotation Xrotation Yrotation
                    End Site
                    {
                        OFFSET -0.000000 26.228985 0.000000
                    }
                }
            }
            JOINT LeftShoulder
            {
                OFFSET 4.178941 22.658146 -0.129871
                CHANNELS 3 Zrotation Xrotation Yrotation
                JOINT LeftArm
                {
                    OFFSET 9.497952 0.000000 0.000000
                    CHANNELS 3 Zrotation Xrotation Yrotation
                    JOINT LeftForeArm
                    {
                        OFFSET 38.855015 0.000000 0.000000
                        CHANNELS 3 Zrotation Xrotation Yrotation
                        JOINT LeftHand
                        {
                            OFFSET 24.940550 0.000000 0.000000
                            CHANNELS 3 Zrotation Xrotation Yrotation
                            End Site
                            {
                                OFFSET 15.737392 0.000000 0.000000
                            }
                        }
                    }
                }
            }
            JOINT RightShoulder
            {
                OFFSET -4.145384 22.658146 -0.129871
                CHANNELS 3 Zrotation Xrotation Yrotation
                JOINT RightArm
                {
                    OFFSET -9.497952 0.000000 0.000000
                    CHANNELS 3 Zrotation Xrotation Yrotation
                    JOINT RightForeArm
                    {
                        OFFSET -38.855015 0.000000 0.000000
                        CHANNELS 3 Zrotation Xrotation Yrotation
                        JOINT RightHand
                        {
                            OFFSET -24.940550 0.000000 0.000000
                            CHANNELS 3 Zrotation Xrotation Yrotation
                            End Site
                            {
                                OFFSET -15.737392 0.000000 0.000000
                            }
                        }
                    }
                }
            }
        }
    }
    JOINT LeftUpLeg
    {
        OFFSET 10.491594 0.000000 0.000000
        CHANNELS 3 Zrotation Xrotation Yrotation
        JOINT LeftLeg
        {
            OFFSET -0.000000 -46.080647 0.000000
            CHANNELS 3 Zrotation Xrotation Yrotation
            JOINT LeftFoot
            {
                OFFSET -0.000000 -50.184704 0.000000
                CHANNELS 3 Zrotation Xrotation Yrotation
                JOINT LeftToeBase
                {
                    OFFSET -0.000000 -6.819536 15.737392
                    CHANNELS 3 Zrotation Xrotation Yrotation
                    End Site
                    {
                        OFFSET -0.000000 0.000000 4.196638
                    }
                }
            }
        }
    }
    JOINT RightUpLeg
    {
        OFFSET -10.491594 0.000000 0.000000
        CHANNELS 3 Zrotation Xrotation Yrotation
        JOINT RightLeg
        {
            OFFSET -0.000000 -46.080647 0.000000
            CHANNELS 3 Zrotation Xrotation Yrotation
            JOINT RightFoot
            {
                OFFSET -0.000000 -50.184704 0.000000
                CHANNELS 3 Zrotation Xrotation Yrotation
                JOINT RightToeBase
                {
                    OFFSET -0.000000 -6.819536 15.737392
                    CHANNELS 3 Zrotation Xrotation Yrotation
                    End Site
                    {
                        OFFSET -0.000000 0.000000 4.196638
                    }
                }
            }
        }
    }
}
MOTION
Frames:    10
Frame Time:    0.008333
-8.398266    103.640984    39.508049    -0.119611    -1.228842    93.871361    0.342984    -6.278868    0.449055    1.461020    0.965397    0.418073    1.464396    14.350908    -3.166893    3.789997    -1.087689    -2.746296    12.983556    -0.652142    -12.195000    -16.272953    4.818899    8.303657    1.913734    -1.902469    1.421411    -0.505320    -1.926632    0.099538    -15.796927    0.423179    -8.209394    12.087203    0.700736    1.528516    -0.192528    -3.866809    -0.600815    -2.025296    -3.845338    -1.274500    0.537658    1.136951    0.849718    -2.984687    8.676182    -8.418450    5.127584    -7.810884    8.550319    0.000000    0.000000    0.000000    2.720002    5.800489    -1.661950    1.751932    -1.659771    -0.036672    -1.626382    -1.578719    -8.855489    0.000000    0.000000    0.000000    
-8.388201    103.640579    39.519615    -0.117050    -1.228643    93.878860    0.420990    -6.238805    0.394755    1.349895    0.858569    0.361861    1.448940    14.467683    -3.087779    3.790487    -1.092993    -2.661804    12.994919    -0.563253    -12.093507    -16.228073    4.818207    8.314799    1.964990    -1.801394    1.415279    -0.967280    -1.825944    0.031716    -15.801304    0.449255    -8.019766    12.135448    0.629980    1.465449    -0.200421    -3.839233    -0.599832    -1.968685    -3.818555    -1.268022    0.545401    1.121629    0.839133    -2.987222    8.717883    -8.469940    5.145351    -7.816334    8.612470    0.000000    0.000000    0.000000    2.715941    5.842438    -1.706207    1.769259    -1.720595    -0.021006    -1.596678    -1.564377    -8.817444    0.000000    0.000000    0.000000    
-8.398965    103.647484    39.530361    -0.170398    -1.228508    93.871117    0.438314    -6.282327    0.385051    1.339147    0.847781    0.351109    1.421584    14.477901    -3.038204    3.807854    -1.064236    -2.607877    13.006182    -0.557370    -12.075658    -16.233723    4.801035    8.342799    1.931000    -1.864565    1.329814    -0.879321    -1.887633    0.088588    -15.843316    0.442512    -7.996519    12.168688    0.537635    1.475493    -0.195781    -3.809815    -0.611109    -1.891475    -3.790683    -1.225231    0.542481    1.026327    0.823743    -2.983419    8.779222    -8.422492    5.129964    -7.819078    8.584968    0.000000    0.000000    0.000000    2.702798    5.801397    -1.681228    1.790870    -1.752511    -0.058522    -1.541977    -1.538296    -8.784784    0.000000    0.000000    0.000000    
-8.390120    103.646278    39.542019    -0.167999    -1.224690    93.865685    0.428249    -6.290911    0.381947    1.364555    0.863192    0.348133    1.414137    14.470423    -2.998690    3.800259    -1.025931    -2.569113    13.016541    -0.524381    -12.050451    -16.239159    4.777612    8.322731    1.938434    -1.826441    1.335251    -1.128211    -1.849544    0.050850    -15.867463    0.401836    -8.059795    12.163097    0.492557    1.556101    -0.176657    -3.804432    -0.633870    -1.847649    -3.786186    -1.194462    0.544962    1.016312    0.807171    -2.984619    8.817366    -8.465761    5.163247    -7.826779    8.654042    0.000000    0.000000    0.000000    2.697975    5.830158    -1.685874    1.796750    -1.795038    -0.055321    -1.514369    -1.532207    -8.748348    0.000000    0.000000    0.000000    
-8.387309    103.645851    39.551544    -0.171743    -1.222510    93.858887    0.431295    -6.285211    0.383455    1.362364    0.840528    0.349879    1.477639    14.419344    -2.961361    3.718422    -0.884327    -2.548962    13.047084    -0.493017    -12.056795    -16.268635    4.765062    8.317106    1.946508    -1.858139    1.339636    -1.242983    -1.882458    0.145983    -15.864558    0.394583    -8.049838    12.151556    0.559702    1.541586    -0.179340    -3.906471    -0.583630    -1.766936    -3.887231    -1.310515    0.545444    0.996276    0.774423    -2.989394    8.848011    -8.462304    5.133952    -7.835956    8.698081    0.000000    0.000000    0.000000    2.688571    5.840868    -1.666682    1.816053    -1.817406    -0.067511    -1.517354    -1.523369    -8.736456    0.000000    0.000000    0.000000    
-8.381743    103.643860    39.557266    -0.161824    -1.216655    93.845406    0.416921    -6.272746    0.383705    1.403492    0.837132    0.350652    1.511279    14.414142    -2.901454    3.651236    -0.879627    -2.497460    13.041579    -0.472761    -12.049982    -16.286077    4.786232    8.307453    1.929242    -1.882541    1.349095    -1.282627    -1.907371    0.187302    -15.921307    0.407020    -8.033686    12.180264    0.519107    1.539631    -0.174357    -3.940799    -0.580577    -1.729455    -3.921702    -1.327804    0.538887    0.997797    0.774631    -2.985559    8.875592    -8.461570    5.124382    -7.853998    8.715080    0.000000    0.000000    0.000000    2.679163    5.861754    -1.646639    1.828592    -1.831164    -0.071090    -1.528511    -1.538571    -8.742862    0.000000    0.000000    0.000000    
-8.360048    103.633461    39.560745    -0.102527    -1.209645    93.833862    0.439617    -6.239182    0.383734    1.374556    0.878694    0.349238    1.521970    14.501089    -2.832543    3.681466    -0.966196    -2.417394    13.087756    -0.476969    -12.035325    -16.329929    4.827967    8.309667    1.905908    -1.866692    1.342596    -1.210557    -1.891644    0.245931    -15.919355    0.402906    -8.044333    12.181649    0.515984    1.564669    -0.170088    -3.966850    -0.583835    -1.679268    -3.948532    -1.312629    0.532467    1.076254    0.768010    -2.980561    8.867348    -8.464357    5.178035    -7.878337    8.746625    0.000000    0.000000    0.000000    2.668597    5.941928    -1.644811    1.843542    -1.847220    -0.057825    -1.526490    -1.565646    -8.737301    0.000000    0.000000    0.000000    
-8.374591    103.642059    39.569809    -0.135833    -1.201485    93.808769    0.425349    -6.250545    0.387591    1.399091    0.872400    0.353749    1.549121    14.472909    -2.758922    3.649202    -0.931758    -2.347564    13.096311    -0.495351    -12.035444    -16.367842    4.892261    8.324708    1.843994    -1.844033    1.356751    -0.818908    -1.867128    0.176072    -15.960945    0.377909    -8.038966    12.202872    0.529329    1.571443    -0.175980    -3.983231    -0.602817    -1.609221    -3.966069    -1.291370    0.519356    1.019513    0.795572    -2.968394    8.904540    -8.485622    5.141456    -7.859463    8.769028    0.000000    0.000000    0.000000    2.663949    5.881161    -1.626367    1.834911    -1.812905    -0.029341    -1.519423    -1.559584    -8.758747    0.000000    0.000000    0.000000    
-8.353230    103.630737    39.574451    -0.072053    -1.199568    93.798149    0.465518    -6.205783    0.377730    1.349931    0.905123    0.341916    1.613622    14.467031    -2.668264    3.609127    -0.917703    -2.260814    13.108713    -0.550000    -12.037306    -16.378996    4.937006    8.386963    1.839212    -1.776428    1.348707    -0.885999    -1.799717    0.211672    -15.945522    0.374066    -8.021823    12.205705    0.313726    1.603552    -0.184475    -3.902095    -0.662857    -1.445846    -3.887605    -1.235806    0.525335    1.112077    0.790616    -2.975421    8.881799    -8.499145    5.199789    -7.885630    8.809308    0.000000    0.000000    0.000000    2.669498    5.963088    -1.615901    1.836477    -1.823730    -0.011815    -1.514824    -1.590498    -8.787936    0.000000    0.000000    0.000000    
-8.365509    103.626488    39.570534    -0.099752    -1.184586    93.728279    0.483555    -6.200930    0.397873    1.340156    0.881615    0.361491    1.677049    14.480569    -2.564440    3.531136    -0.932793    -2.164865    13.090530    -0.551885    -12.040269    -16.380976    4.900521    8.425737    1.853779    -1.737041    1.362127    -0.891969    -1.761043    0.254617    -15.972206    0.372400    -8.001720    12.218666    0.258406    1.615139    -0.177312    -3.953947    -0.668307    -1.492346    -3.939032    -1.227825    0.489016    1.088633    0.826936    -2.956519    8.870459    -8.438716    5.189939    -7.890447    8.788751    0.000000    0.000000    0.000000    2.641715    5.891228    -1.607239    1.840023    -1.758659    0.005964    -1.545649    -1.631843    -8.745619    0.000000    0.000000    0.000000    
